<svg width="1440" height="1024" viewBox="0 0 1440 1024" fill="none" xmlns="http://www.w3.org/2000/svg">
<mask id="mask0_33_4821" style="mask-type:alpha" maskUnits="userSpaceOnUse" x="-1" y="-325" width="1441" height="1349">
<rect x="-1" y="-325" width="1441" height="1348.94" fill="#D9D9D9"/>
</mask>
<g mask="url(#mask0_33_4821)">
<rect x="-1" y="-325" width="1445" height="1348.94" fill="url(#paint0_linear_33_4821)"/>
<path d="M667.391 -313.655H-458.069V370.637L667.391 -313.655Z" fill="url(#paint1_linear_33_4821)"/>
<path d="M-458.069 602.742V1022.12H846.275L-458.069 602.742Z" fill="url(#paint2_linear_33_4821)"/>
<path style="mix-blend-mode:screen" d="M66.1759 -365.403L-439.623 834.392" stroke="url(#paint3_linear_33_4821)" stroke-miterlimit="10"/>
<path d="M-458.069 660.18V1022.12H667.588L-458.069 660.18Z" fill="url(#paint4_linear_33_4821)"/>
<path style="mix-blend-mode:screen" d="M-179.371 388.59L202.062 1542.7" stroke="url(#paint5_linear_33_4821)" stroke-miterlimit="10"/>
<path style="mix-blend-mode:screen" d="M-138.736 421.637L242.697 1575.75" stroke="url(#paint6_linear_33_4821)" stroke-miterlimit="10"/>
<path style="mix-blend-mode:screen" d="M-98.1345 454.711L283.299 1608.8" stroke="url(#paint7_linear_33_4821)" stroke-miterlimit="10"/>
<path style="mix-blend-mode:screen" d="M-57.533 487.758L323.901 1641.87" stroke="url(#paint8_linear_33_4821)" stroke-miterlimit="10"/>
<path style="mix-blend-mode:screen" d="M-16.9312 520.805L364.502 1674.92" stroke="url(#paint9_linear_33_4821)" stroke-miterlimit="10"/>
<path style="mix-blend-mode:screen" d="M23.7034 553.852L405.137 1707.96" stroke="url(#paint10_linear_33_4821)" stroke-miterlimit="10"/>
<path style="mix-blend-mode:screen" d="M64.3052 586.926L445.739 1741.01" stroke="url(#paint11_linear_33_4821)" stroke-miterlimit="10"/>
<path style="mix-blend-mode:screen" d="M104.907 619.973L486.34 1774.08" stroke="url(#paint12_linear_33_4821)" stroke-miterlimit="10"/>
<path style="mix-blend-mode:screen" d="M145.509 653.02L526.942 1807.13" stroke="url(#paint13_linear_33_4821)" stroke-miterlimit="10"/>
<path style="mix-blend-mode:screen" d="M186.144 686.067L567.577 1840.18" stroke="url(#paint14_linear_33_4821)" stroke-miterlimit="10"/>
<path style="mix-blend-mode:screen" d="M22.6122 1016.22C49.2037 1010.94 49.531 935.882 23.3431 848.576C-2.84476 761.27 -45.6309 694.778 -72.2224 700.062C-98.8139 705.346 -99.1412 780.405 -72.9533 867.711C-46.7654 955.017 -3.97931 1021.51 22.6122 1016.22Z" fill="url(#paint15_radial_33_4821)"/>
<path style="mix-blend-mode:screen" d="M-7.23301 916.732C2.64635 914.769 2.76774 886.882 -6.96188 854.446C-16.6915 822.009 -32.5877 797.305 -42.4671 799.268C-52.3464 801.231 -52.4678 829.118 -42.7382 861.555C-33.0086 893.992 -17.1124 918.696 -7.23301 916.732Z" fill="url(#paint16_radial_33_4821)"/>
<path style="mix-blend-mode:screen" d="M166.886 1088.76C193.477 1083.48 193.805 1008.42 167.617 921.112C141.429 833.806 98.6428 767.314 72.0512 772.599C45.4597 777.883 45.1325 852.942 71.3204 940.248C97.5083 1027.55 140.294 1094.05 166.886 1088.76Z" fill="url(#paint17_radial_33_4821)"/>
<path style="mix-blend-mode:screen" d="M137.369 926.961C147.215 959.394 146.986 987.285 137.106 989.235C127.226 991.185 111.34 966.5 101.625 934.068C91.909 901.635 92.0074 873.744 101.887 871.767C111.767 869.79 127.653 894.529 137.369 926.961Z" fill="url(#paint18_radial_33_4821)"/>
<path d="M2003.64 105.619V-313.735H699.327L2003.64 105.619Z" fill="url(#paint19_linear_33_4821)"/>
<path style="mix-blend-mode:screen" d="M996.027 1578.03L1298.8 656.355" stroke="url(#paint20_linear_33_4821)" stroke-miterlimit="10"/>
<path style="mix-blend-mode:screen" d="M1027.19 1551.31L1329.97 629.64" stroke="url(#paint21_linear_33_4821)" stroke-miterlimit="10"/>
<path style="mix-blend-mode:screen" d="M1058.36 1529.05L1365.59 607.377" stroke="url(#paint22_linear_33_4821)" stroke-miterlimit="10"/>
<path style="mix-blend-mode:screen" d="M1093.98 1502.34L1396.75 580.662" stroke="url(#paint23_linear_33_4821)" stroke-miterlimit="10"/>
<path style="mix-blend-mode:screen" d="M1125.15 1475.62L1427.92 553.947" stroke="url(#paint24_linear_33_4821)" stroke-miterlimit="10"/>
<path style="mix-blend-mode:screen" d="M1156.32 1448.91L1459.09 527.232" stroke="url(#paint25_linear_33_4821)" stroke-miterlimit="10"/>
<path style="mix-blend-mode:screen" d="M1187.49 1422.19L1494.71 500.517" stroke="url(#paint26_linear_33_4821)" stroke-miterlimit="10"/>
<path style="mix-blend-mode:screen" d="M1223.11 1395.48L1525.88 473.802" stroke="url(#paint27_linear_33_4821)" stroke-miterlimit="10"/>
<path style="mix-blend-mode:screen" d="M1254.27 1368.76L1557.05 447.086" stroke="url(#paint28_linear_33_4821)" stroke-miterlimit="10"/>
<path style="mix-blend-mode:screen" d="M1285.44 1342.04L1592.67 420.371" stroke="url(#paint29_linear_33_4821)" stroke-miterlimit="10"/>
<path style="mix-blend-mode:screen" d="M1280.56 1088.76C1253.97 1083.48 1253.65 1008.42 1279.83 921.112C1306.02 833.806 1348.81 767.314 1375.4 772.599C1401.99 777.883 1402.32 852.942 1376.13 940.248C1349.94 1027.55 1307.16 1094.05 1280.56 1088.76Z" fill="url(#paint30_radial_33_4821)"/>
<path d="M2003.64 48.1804V-313.735H877.982L2003.64 48.1804Z" fill="url(#paint31_linear_33_4821)"/>
<path style="mix-blend-mode:screen" opacity="0.57" d="M1402.62 903.425C1402.62 908.709 1400.7 913.874 1397.09 918.268C1393.48 922.661 1388.36 926.085 1382.36 928.107C1376.36 930.129 1369.76 930.658 1363.4 929.627C1357.03 928.597 1351.18 926.052 1346.59 922.316C1342 918.58 1338.87 913.819 1337.61 908.637C1336.34 903.455 1336.99 898.083 1339.47 893.202C1341.96 888.32 1346.17 884.148 1351.56 881.212C1356.96 878.277 1363.31 876.71 1369.8 876.71C1378.5 876.71 1386.85 879.524 1393.01 884.534C1399.16 889.545 1402.62 896.34 1402.62 903.425V903.425Z" fill="url(#paint32_radial_33_4821)"/>
<path style="mix-blend-mode:screen" opacity="0.57" d="M1485.03 868.161C1497.49 857.403 1496.88 840.461 1483.66 830.32C1470.44 820.179 1449.63 820.679 1437.17 831.436C1424.71 842.194 1425.32 859.136 1438.54 869.277C1451.76 879.418 1472.57 878.918 1485.03 868.161Z" fill="url(#paint33_radial_33_4821)"/>
<path style="mix-blend-mode:screen" opacity="0.57" d="M1415.45 947.586C1415.45 951.284 1414.11 954.9 1411.58 957.975C1409.06 961.051 1405.47 963.448 1401.27 964.863C1397.07 966.278 1392.45 966.649 1388 965.927C1383.54 965.206 1379.45 963.425 1376.23 960.809C1373.02 958.194 1370.83 954.862 1369.94 951.234C1369.06 947.606 1369.51 943.846 1371.25 940.429C1372.99 937.012 1375.94 934.091 1379.71 932.036C1383.49 929.982 1387.93 928.885 1392.48 928.885C1398.57 928.885 1404.42 930.855 1408.73 934.362C1413.03 937.869 1415.45 942.626 1415.45 947.586Z" fill="url(#paint34_radial_33_4821)"/>
<path style="mix-blend-mode:screen" opacity="0.57" d="M249.841 584.384C292.09 549.997 292.09 494.244 249.841 459.856C207.593 425.469 139.095 425.469 96.8462 459.856C54.5978 494.244 54.5977 549.997 96.8462 584.384C139.095 618.772 207.593 618.772 249.841 584.384Z" fill="url(#paint35_radial_33_4821)"/>
<path style="mix-blend-mode:screen" opacity="0.57" d="M1173.71 798.442C1215.96 764.054 1215.96 708.301 1173.71 673.914C1131.46 639.526 1062.96 639.526 1020.71 673.914C978.465 708.301 978.465 764.054 1020.71 798.442C1062.96 832.829 1131.46 832.829 1173.71 798.442Z" fill="url(#paint36_radial_33_4821)"/>
<path style="mix-blend-mode:screen" opacity="0.57" d="M1538.75 245.447C1550.53 197.77 1512.59 151.348 1454.02 141.761C1395.44 132.174 1338.41 163.051 1326.63 210.728C1314.85 258.405 1352.79 304.826 1411.36 314.414C1469.94 324.001 1526.97 293.123 1538.75 245.447Z" fill="url(#paint37_radial_33_4821)"/>
<path style="mix-blend-mode:screen" opacity="0.57" d="M838.135 26.6207C856.299 26.6207 871.023 14.6359 871.023 -0.148207C871.023 -14.9323 856.299 -26.9172 838.135 -26.9172C819.971 -26.9172 805.247 -14.9323 805.247 -0.148207C805.247 14.6359 819.971 26.6207 838.135 26.6207Z" fill="url(#paint38_radial_33_4821)"/>
<path style="mix-blend-mode:screen" opacity="0.57" d="M883.857 44.0129C883.857 47.7116 882.51 51.3272 879.985 54.4026C877.46 57.4779 873.872 59.8748 869.674 61.2903C865.475 62.7057 860.856 63.076 856.399 62.3545C851.942 61.6329 847.848 59.8518 844.635 57.2364C841.422 54.621 839.233 51.2889 838.347 47.6613C837.46 44.0337 837.915 40.2735 839.654 36.8564C841.393 33.4392 844.338 30.5186 848.116 28.4637C851.895 26.4088 856.337 25.312 860.881 25.312C866.975 25.312 872.819 27.2823 877.128 30.7894C881.436 34.2965 883.857 39.0531 883.857 44.0129V44.0129Z" fill="url(#paint39_radial_33_4821)"/>
<path style="mix-blend-mode:screen" opacity="0.57" d="M968.109 79.9721C984.871 74.2788 992.79 58.6028 985.795 44.959C978.8 31.3151 959.541 24.87 942.778 30.5633C926.015 36.2567 918.097 51.9326 925.091 65.5765C932.086 79.2204 951.346 85.6655 968.109 79.9721Z" fill="url(#paint40_radial_33_4821)"/>
<path style="mix-blend-mode:screen" opacity="0.57" d="M629.185 727.957C647.349 727.957 662.074 715.973 662.074 701.188C662.074 686.404 647.349 674.419 629.185 674.419C611.021 674.419 596.297 686.404 596.297 701.188C596.297 715.973 611.021 727.957 629.185 727.957Z" fill="url(#paint41_radial_33_4821)"/>
<path style="mix-blend-mode:screen" opacity="0.57" d="M537.807 781.495C555.97 781.495 570.695 769.51 570.695 754.726C570.695 739.942 555.97 727.958 537.807 727.958C519.643 727.958 504.918 739.942 504.918 754.726C504.918 769.51 519.643 781.495 537.807 781.495Z" fill="url(#paint42_radial_33_4821)"/>
<path style="mix-blend-mode:screen" opacity="0.57" d="M583.463 657.028C583.463 653.329 584.811 649.713 587.335 646.638C589.86 643.563 593.448 641.166 597.647 639.75C601.845 638.335 606.465 637.964 610.921 638.686C615.378 639.408 619.472 641.189 622.685 643.804C625.899 646.419 628.087 649.752 628.973 653.379C629.86 657.007 629.405 660.767 627.666 664.184C625.927 667.601 622.982 670.522 619.204 672.577C615.425 674.632 610.983 675.728 606.439 675.728C600.345 675.728 594.501 673.758 590.193 670.251C585.884 666.744 583.463 661.987 583.463 657.028V657.028Z" fill="url(#paint43_radial_33_4821)"/>
<path style="mix-blend-mode:screen" opacity="0.57" d="M535.13 664.616C547.973 654.162 547.973 637.212 535.13 626.759C522.286 616.305 501.462 616.305 488.618 626.758C475.775 637.212 475.775 654.162 488.618 664.616C501.462 675.07 522.286 675.069 535.13 664.616Z" fill="url(#paint44_radial_33_4821)"/>
</g>
<defs>
<linearGradient id="paint0_linear_33_4821" x1="736.396" y1="-1079.27" x2="645.925" y2="1857.61" gradientUnits="userSpaceOnUse">
<stop stop-color="#231F20"/>
<stop offset="0.32" stop-color="#110F10"/>
<stop offset="0.67" stop-color="#040404"/>
<stop offset="1"/>
</linearGradient>
<linearGradient id="paint1_linear_33_4821" x1="152.205" y1="84.0059" x2="56.4973" y2="-84.7765" gradientUnits="userSpaceOnUse">
<stop stop-color="#231F20"/>
<stop offset="0.32" stop-color="#110F10"/>
<stop offset="0.67" stop-color="#040404"/>
<stop offset="1"/>
</linearGradient>
<linearGradient id="paint2_linear_33_4821" x1="292.555" y1="442.849" x2="196.797" y2="985.384" gradientUnits="userSpaceOnUse">
<stop stop-color="#231F20"/>
<stop offset="0.32" stop-color="#110F10"/>
<stop offset="0.67" stop-color="#040404"/>
<stop offset="1"/>
</linearGradient>
<linearGradient id="paint3_linear_33_4821" x1="-441.166" y1="234.494" x2="67.7515" y2="234.494" gradientUnits="userSpaceOnUse">
<stop/>
<stop offset="0.29" stop-color="#90522C"/>
<stop offset="0.32" stop-color="#D29048"/>
<stop offset="0.59" stop-color="#F2CF67"/>
<stop offset="0.71" stop-color="#C5763B"/>
<stop offset="0.77" stop-color="#753E23"/>
<stop offset="1"/>
</linearGradient>
<linearGradient id="paint4_linear_33_4821" x1="115.673" y1="481.453" x2="100.361" y2="1244.66" gradientUnits="userSpaceOnUse">
<stop stop-color="#231F20"/>
<stop offset="0.32" stop-color="#110F10"/>
<stop offset="0.67" stop-color="#040404"/>
<stop offset="1"/>
</linearGradient>
<linearGradient id="paint5_linear_33_4821" x1="-180.947" y1="965.646" x2="203.671" y2="965.646" gradientUnits="userSpaceOnUse">
<stop/>
<stop offset="0.29" stop-color="#90522C"/>
<stop offset="0.32" stop-color="#D29048"/>
<stop offset="0.59" stop-color="#F2CF67"/>
<stop offset="0.71" stop-color="#C5763B"/>
<stop offset="0.77" stop-color="#753E23"/>
<stop offset="1"/>
</linearGradient>
<linearGradient id="paint6_linear_33_4821" x1="-140.344" y1="998.693" x2="244.273" y2="998.693" gradientUnits="userSpaceOnUse">
<stop/>
<stop offset="0.29" stop-color="#90522C"/>
<stop offset="0.32" stop-color="#D29048"/>
<stop offset="0.59" stop-color="#F2CF67"/>
<stop offset="0.71" stop-color="#C5763B"/>
<stop offset="0.77" stop-color="#753E23"/>
<stop offset="1"/>
</linearGradient>
<linearGradient id="paint7_linear_33_4821" x1="-99.71" y1="1031.77" x2="284.874" y2="1031.77" gradientUnits="userSpaceOnUse">
<stop/>
<stop offset="0.29" stop-color="#90522C"/>
<stop offset="0.32" stop-color="#D29048"/>
<stop offset="0.59" stop-color="#F2CF67"/>
<stop offset="0.71" stop-color="#C5763B"/>
<stop offset="0.77" stop-color="#753E23"/>
<stop offset="1"/>
</linearGradient>
<linearGradient id="paint8_linear_33_4821" x1="-59.1085" y1="1064.81" x2="325.476" y2="1064.81" gradientUnits="userSpaceOnUse">
<stop/>
<stop offset="0.29" stop-color="#90522C"/>
<stop offset="0.32" stop-color="#D29048"/>
<stop offset="0.59" stop-color="#F2CF67"/>
<stop offset="0.71" stop-color="#C5763B"/>
<stop offset="0.77" stop-color="#753E23"/>
<stop offset="1"/>
</linearGradient>
<linearGradient id="paint9_linear_33_4821" x1="-18.5066" y1="1097.86" x2="366.111" y2="1097.86" gradientUnits="userSpaceOnUse">
<stop/>
<stop offset="0.29" stop-color="#90522C"/>
<stop offset="0.32" stop-color="#D29048"/>
<stop offset="0.59" stop-color="#F2CF67"/>
<stop offset="0.71" stop-color="#C5763B"/>
<stop offset="0.77" stop-color="#753E23"/>
<stop offset="1"/>
</linearGradient>
<linearGradient id="paint10_linear_33_4821" x1="22.0951" y1="1130.91" x2="406.712" y2="1130.91" gradientUnits="userSpaceOnUse">
<stop/>
<stop offset="0.29" stop-color="#90522C"/>
<stop offset="0.32" stop-color="#D29048"/>
<stop offset="0.59" stop-color="#F2CF67"/>
<stop offset="0.71" stop-color="#C5763B"/>
<stop offset="0.77" stop-color="#753E23"/>
<stop offset="1"/>
</linearGradient>
<linearGradient id="paint11_linear_33_4821" x1="62.7297" y1="1163.98" x2="447.314" y2="1163.98" gradientUnits="userSpaceOnUse">
<stop/>
<stop offset="0.29" stop-color="#90522C"/>
<stop offset="0.32" stop-color="#D29048"/>
<stop offset="0.59" stop-color="#F2CF67"/>
<stop offset="0.71" stop-color="#C5763B"/>
<stop offset="0.77" stop-color="#753E23"/>
<stop offset="1"/>
</linearGradient>
<linearGradient id="paint12_linear_33_4821" x1="103.331" y1="1197.03" x2="487.916" y2="1197.03" gradientUnits="userSpaceOnUse">
<stop/>
<stop offset="0.29" stop-color="#90522C"/>
<stop offset="0.32" stop-color="#D29048"/>
<stop offset="0.59" stop-color="#F2CF67"/>
<stop offset="0.71" stop-color="#C5763B"/>
<stop offset="0.77" stop-color="#753E23"/>
<stop offset="1"/>
</linearGradient>
<linearGradient id="paint13_linear_33_4821" x1="143.933" y1="1230.08" x2="528.551" y2="1230.08" gradientUnits="userSpaceOnUse">
<stop/>
<stop offset="0.29" stop-color="#90522C"/>
<stop offset="0.32" stop-color="#D29048"/>
<stop offset="0.59" stop-color="#F2CF67"/>
<stop offset="0.71" stop-color="#C5763B"/>
<stop offset="0.77" stop-color="#753E23"/>
<stop offset="1"/>
</linearGradient>
<linearGradient id="paint14_linear_33_4821" x1="184.535" y1="1263.12" x2="569.152" y2="1263.12" gradientUnits="userSpaceOnUse">
<stop/>
<stop offset="0.29" stop-color="#90522C"/>
<stop offset="0.32" stop-color="#D29048"/>
<stop offset="0.59" stop-color="#F2CF67"/>
<stop offset="0.71" stop-color="#C5763B"/>
<stop offset="0.77" stop-color="#753E23"/>
<stop offset="1"/>
</linearGradient>
<radialGradient id="paint15_radial_33_4821" cx="0" cy="0" r="1" gradientUnits="userSpaceOnUse" gradientTransform="translate(-23.7712 858.603) rotate(-11.2392) scale(49.0636 164.18)">
<stop stop-color="#FDAE54"/>
<stop offset="0.05" stop-color="#CD8D44"/>
<stop offset="0.1" stop-color="#A27036"/>
<stop offset="0.15" stop-color="#7B5529"/>
<stop offset="0.21" stop-color="#5A3E1E"/>
<stop offset="0.27" stop-color="#3E2A14"/>
<stop offset="0.34" stop-color="#271B0D"/>
<stop offset="0.43" stop-color="#150F07"/>
<stop offset="0.53" stop-color="#090603"/>
<stop offset="0.67" stop-color="#020101"/>
<stop offset="1"/>
</radialGradient>
<radialGradient id="paint16_radial_33_4821" cx="0" cy="0" r="1" gradientUnits="userSpaceOnUse" gradientTransform="translate(-8.73161 853.831) rotate(-11.2392) scale(18.2737 60.9572)">
<stop stop-color="white"/>
<stop offset="0.01" stop-color="#F6F6F6"/>
<stop offset="0.05" stop-color="#C8C8C8"/>
<stop offset="0.09" stop-color="#9D9D9D"/>
<stop offset="0.14" stop-color="#777777"/>
<stop offset="0.2" stop-color="#575757"/>
<stop offset="0.25" stop-color="#3B3B3B"/>
<stop offset="0.32" stop-color="#252525"/>
<stop offset="0.4" stop-color="#141414"/>
<stop offset="0.49" stop-color="#090909"/>
<stop offset="0.63" stop-color="#020202"/>
<stop offset="1"/>
</radialGradient>
<radialGradient id="paint17_radial_33_4821" cx="0" cy="0" r="1" gradientUnits="userSpaceOnUse" gradientTransform="translate(120.563 931.23) rotate(-11.2392) scale(49.0636 164.18)">
<stop stop-color="#FDAE54"/>
<stop offset="0.05" stop-color="#CD8D44"/>
<stop offset="0.1" stop-color="#A27036"/>
<stop offset="0.15" stop-color="#7B5529"/>
<stop offset="0.21" stop-color="#5A3E1E"/>
<stop offset="0.27" stop-color="#3E2A14"/>
<stop offset="0.34" stop-color="#271B0D"/>
<stop offset="0.43" stop-color="#150F07"/>
<stop offset="0.53" stop-color="#090603"/>
<stop offset="0.67" stop-color="#020101"/>
<stop offset="1"/>
</radialGradient>
<radialGradient id="paint18_radial_33_4821" cx="0" cy="0" r="1" gradientUnits="userSpaceOnUse" gradientTransform="translate(100.334 917.603) rotate(-11.4223) scale(18.1779 61.0455)">
<stop stop-color="white"/>
<stop offset="0.01" stop-color="#F6F6F6"/>
<stop offset="0.05" stop-color="#C8C8C8"/>
<stop offset="0.09" stop-color="#9D9D9D"/>
<stop offset="0.14" stop-color="#777777"/>
<stop offset="0.2" stop-color="#575757"/>
<stop offset="0.25" stop-color="#3B3B3B"/>
<stop offset="0.32" stop-color="#252525"/>
<stop offset="0.4" stop-color="#141414"/>
<stop offset="0.49" stop-color="#090909"/>
<stop offset="0.63" stop-color="#020202"/>
<stop offset="1"/>
</radialGradient>
<linearGradient id="paint19_linear_33_4821" x1="1253.01" y1="265.538" x2="1348.77" y2="-276.997" gradientUnits="userSpaceOnUse">
<stop stop-color="#231F20"/>
<stop offset="0.32" stop-color="#110F10"/>
<stop offset="0.67" stop-color="#040404"/>
<stop offset="1"/>
</linearGradient>
<linearGradient id="paint20_linear_33_4821" x1="994.777" y1="1117.21" x2="1300.05" y2="1117.21" gradientUnits="userSpaceOnUse">
<stop/>
<stop offset="0.29" stop-color="#90522C"/>
<stop offset="0.32" stop-color="#D29048"/>
<stop offset="0.59" stop-color="#F2CF67"/>
<stop offset="0.71" stop-color="#C5763B"/>
<stop offset="0.77" stop-color="#753E23"/>
<stop offset="1"/>
</linearGradient>
<linearGradient id="paint21_linear_33_4821" x1="1025.94" y1="1090.48" x2="1331.24" y2="1090.48" gradientUnits="userSpaceOnUse">
<stop/>
<stop offset="0.29" stop-color="#90522C"/>
<stop offset="0.32" stop-color="#D29048"/>
<stop offset="0.59" stop-color="#F2CF67"/>
<stop offset="0.71" stop-color="#C5763B"/>
<stop offset="0.77" stop-color="#753E23"/>
<stop offset="1"/>
</linearGradient>
<linearGradient id="paint22_linear_33_4821" x1="1057.09" y1="1068.21" x2="1366.88" y2="1068.21" gradientUnits="userSpaceOnUse">
<stop/>
<stop offset="0.29" stop-color="#90522C"/>
<stop offset="0.32" stop-color="#D29048"/>
<stop offset="0.59" stop-color="#F2CF67"/>
<stop offset="0.71" stop-color="#C5763B"/>
<stop offset="0.77" stop-color="#753E23"/>
<stop offset="1"/>
</linearGradient>
<linearGradient id="paint23_linear_33_4821" x1="1092.73" y1="1041.52" x2="1398.01" y2="1041.52" gradientUnits="userSpaceOnUse">
<stop/>
<stop offset="0.29" stop-color="#90522C"/>
<stop offset="0.32" stop-color="#D29048"/>
<stop offset="0.59" stop-color="#F2CF67"/>
<stop offset="0.71" stop-color="#C5763B"/>
<stop offset="0.77" stop-color="#753E23"/>
<stop offset="1"/>
</linearGradient>
<linearGradient id="paint24_linear_33_4821" x1="1123.9" y1="1014.8" x2="1429.17" y2="1014.8" gradientUnits="userSpaceOnUse">
<stop/>
<stop offset="0.29" stop-color="#90522C"/>
<stop offset="0.32" stop-color="#D29048"/>
<stop offset="0.59" stop-color="#F2CF67"/>
<stop offset="0.71" stop-color="#C5763B"/>
<stop offset="0.77" stop-color="#753E23"/>
<stop offset="1"/>
</linearGradient>
<linearGradient id="paint25_linear_33_4821" x1="1155.07" y1="988.069" x2="1460.37" y2="988.069" gradientUnits="userSpaceOnUse">
<stop/>
<stop offset="0.29" stop-color="#90522C"/>
<stop offset="0.32" stop-color="#D29048"/>
<stop offset="0.59" stop-color="#F2CF67"/>
<stop offset="0.71" stop-color="#C5763B"/>
<stop offset="0.77" stop-color="#753E23"/>
<stop offset="1"/>
</linearGradient>
<linearGradient id="paint26_linear_33_4821" x1="1186.22" y1="961.353" x2="1496.01" y2="961.353" gradientUnits="userSpaceOnUse">
<stop/>
<stop offset="0.29" stop-color="#90522C"/>
<stop offset="0.32" stop-color="#D29048"/>
<stop offset="0.59" stop-color="#F2CF67"/>
<stop offset="0.71" stop-color="#C5763B"/>
<stop offset="0.77" stop-color="#753E23"/>
<stop offset="1"/>
</linearGradient>
<linearGradient id="paint27_linear_33_4821" x1="1221.83" y1="934.66" x2="1527.13" y2="934.66" gradientUnits="userSpaceOnUse">
<stop/>
<stop offset="0.29" stop-color="#90522C"/>
<stop offset="0.32" stop-color="#D29048"/>
<stop offset="0.59" stop-color="#F2CF67"/>
<stop offset="0.71" stop-color="#C5763B"/>
<stop offset="0.77" stop-color="#753E23"/>
<stop offset="1"/>
</linearGradient>
<linearGradient id="paint28_linear_33_4821" x1="1253.02" y1="907.944" x2="1558.3" y2="907.944" gradientUnits="userSpaceOnUse">
<stop/>
<stop offset="0.29" stop-color="#90522C"/>
<stop offset="0.32" stop-color="#D29048"/>
<stop offset="0.59" stop-color="#F2CF67"/>
<stop offset="0.71" stop-color="#C5763B"/>
<stop offset="0.77" stop-color="#753E23"/>
<stop offset="1"/>
</linearGradient>
<linearGradient id="paint29_linear_33_4821" x1="1284.17" y1="881.208" x2="1593.96" y2="881.208" gradientUnits="userSpaceOnUse">
<stop/>
<stop offset="0.29" stop-color="#90522C"/>
<stop offset="0.32" stop-color="#D29048"/>
<stop offset="0.59" stop-color="#F2CF67"/>
<stop offset="0.71" stop-color="#C5763B"/>
<stop offset="0.77" stop-color="#753E23"/>
<stop offset="1"/>
</linearGradient>
<radialGradient id="paint30_radial_33_4821" cx="0" cy="0" r="1" gradientUnits="userSpaceOnUse" gradientTransform="translate(1326.89 931.23) rotate(-168.761) scale(49.0636 164.18)">
<stop stop-color="#FDAE54"/>
<stop offset="0.05" stop-color="#CD8D44"/>
<stop offset="0.1" stop-color="#A27036"/>
<stop offset="0.15" stop-color="#7B5529"/>
<stop offset="0.21" stop-color="#5A3E1E"/>
<stop offset="0.27" stop-color="#3E2A14"/>
<stop offset="0.34" stop-color="#271B0D"/>
<stop offset="0.43" stop-color="#150F07"/>
<stop offset="0.53" stop-color="#090603"/>
<stop offset="0.67" stop-color="#020101"/>
<stop offset="1"/>
</radialGradient>
<linearGradient id="paint31_linear_33_4821" x1="1429.93" y1="226.934" x2="1445.24" y2="-536.272" gradientUnits="userSpaceOnUse">
<stop stop-color="#231F20"/>
<stop offset="0.32" stop-color="#110F10"/>
<stop offset="0.67" stop-color="#040404"/>
<stop offset="1"/>
</linearGradient>
<radialGradient id="paint32_radial_33_4821" cx="0" cy="0" r="1" gradientUnits="userSpaceOnUse" gradientTransform="translate(1369.33 909.901) scale(32.9977 26.8579)">
<stop stop-color="#FDAE54"/>
<stop offset="0.01" stop-color="#F6A952"/>
<stop offset="0.05" stop-color="#C88A42"/>
<stop offset="0.09" stop-color="#9D6C34"/>
<stop offset="0.14" stop-color="#775228"/>
<stop offset="0.19" stop-color="#573C1D"/>
<stop offset="0.25" stop-color="#3B2914"/>
<stop offset="0.32" stop-color="#251A0C"/>
<stop offset="0.4" stop-color="#140E07"/>
<stop offset="0.49" stop-color="#090603"/>
<stop offset="0.63" stop-color="#020101"/>
<stop offset="1"/>
</radialGradient>
<radialGradient id="paint33_radial_33_4821" cx="0" cy="0" r="1" gradientUnits="userSpaceOnUse" gradientTransform="translate(1460.88 856.142) scale(32.9977 26.8579)">
<stop stop-color="#FDAE54"/>
<stop offset="0.01" stop-color="#F6A952"/>
<stop offset="0.05" stop-color="#C88A42"/>
<stop offset="0.09" stop-color="#9D6C34"/>
<stop offset="0.14" stop-color="#775228"/>
<stop offset="0.19" stop-color="#573C1D"/>
<stop offset="0.25" stop-color="#3B2914"/>
<stop offset="0.32" stop-color="#251A0C"/>
<stop offset="0.4" stop-color="#140E07"/>
<stop offset="0.49" stop-color="#090603"/>
<stop offset="0.63" stop-color="#020101"/>
<stop offset="1"/>
</radialGradient>
<radialGradient id="paint34_radial_33_4821" cx="0" cy="0" r="1" gradientUnits="userSpaceOnUse" gradientTransform="translate(1392.25 954.16) scale(22.9195 18.6549)">
<stop stop-color="#FDAE54"/>
<stop offset="0.01" stop-color="#F6A952"/>
<stop offset="0.05" stop-color="#C88A42"/>
<stop offset="0.09" stop-color="#9D6C34"/>
<stop offset="0.14" stop-color="#775228"/>
<stop offset="0.19" stop-color="#573C1D"/>
<stop offset="0.25" stop-color="#3B2914"/>
<stop offset="0.32" stop-color="#251A0C"/>
<stop offset="0.4" stop-color="#140E07"/>
<stop offset="0.49" stop-color="#090603"/>
<stop offset="0.63" stop-color="#020101"/>
<stop offset="1"/>
</radialGradient>
<radialGradient id="paint35_radial_33_4821" cx="0" cy="0" r="1" gradientUnits="userSpaceOnUse" gradientTransform="translate(173.316 522.106) scale(108.184 88.0544)">
<stop stop-color="#FDAE54"/>
<stop offset="0.01" stop-color="#F6A952"/>
<stop offset="0.05" stop-color="#C88A42"/>
<stop offset="0.09" stop-color="#9D6C34"/>
<stop offset="0.14" stop-color="#775228"/>
<stop offset="0.19" stop-color="#573C1D"/>
<stop offset="0.25" stop-color="#3B2914"/>
<stop offset="0.32" stop-color="#251A0C"/>
<stop offset="0.4" stop-color="#140E07"/>
<stop offset="0.49" stop-color="#090603"/>
<stop offset="0.63" stop-color="#020101"/>
<stop offset="1"/>
</radialGradient>
<radialGradient id="paint36_radial_33_4821" cx="0" cy="0" r="1" gradientUnits="userSpaceOnUse" gradientTransform="translate(1097.18 736.164) scale(108.184 88.0544)">
<stop stop-color="#FDAE54"/>
<stop offset="0.01" stop-color="#F6A952"/>
<stop offset="0.05" stop-color="#C88A42"/>
<stop offset="0.09" stop-color="#9D6C34"/>
<stop offset="0.14" stop-color="#775228"/>
<stop offset="0.19" stop-color="#573C1D"/>
<stop offset="0.25" stop-color="#3B2914"/>
<stop offset="0.32" stop-color="#251A0C"/>
<stop offset="0.4" stop-color="#140E07"/>
<stop offset="0.49" stop-color="#090603"/>
<stop offset="0.63" stop-color="#020101"/>
<stop offset="1"/>
</radialGradient>
<radialGradient id="paint37_radial_33_4821" cx="0" cy="0" r="1" gradientUnits="userSpaceOnUse" gradientTransform="translate(1432.7 228.061) scale(108.184 88.0544)">
<stop stop-color="#FDAE54"/>
<stop offset="0.01" stop-color="#F6A952"/>
<stop offset="0.05" stop-color="#C88A42"/>
<stop offset="0.09" stop-color="#9D6C34"/>
<stop offset="0.14" stop-color="#775228"/>
<stop offset="0.19" stop-color="#573C1D"/>
<stop offset="0.25" stop-color="#3B2914"/>
<stop offset="0.32" stop-color="#251A0C"/>
<stop offset="0.4" stop-color="#140E07"/>
<stop offset="0.49" stop-color="#090603"/>
<stop offset="0.63" stop-color="#020101"/>
<stop offset="1"/>
</radialGradient>
<radialGradient id="paint38_radial_33_4821" cx="0" cy="0" r="1" gradientUnits="userSpaceOnUse" gradientTransform="translate(840.474 2.80168) scale(32.9977 26.858)">
<stop stop-color="#FDAE54"/>
<stop offset="0.01" stop-color="#F6A952"/>
<stop offset="0.05" stop-color="#C88A42"/>
<stop offset="0.09" stop-color="#9D6C34"/>
<stop offset="0.14" stop-color="#775228"/>
<stop offset="0.19" stop-color="#573C1D"/>
<stop offset="0.25" stop-color="#3B2914"/>
<stop offset="0.32" stop-color="#251A0C"/>
<stop offset="0.4" stop-color="#140E07"/>
<stop offset="0.49" stop-color="#090603"/>
<stop offset="0.63" stop-color="#020101"/>
<stop offset="1"/>
</radialGradient>
<radialGradient id="paint39_radial_33_4821" cx="0" cy="0" r="1" gradientUnits="userSpaceOnUse" gradientTransform="translate(863.394 47.0614) scale(22.9195 18.6549)">
<stop stop-color="#FDAE54"/>
<stop offset="0.01" stop-color="#F6A952"/>
<stop offset="0.05" stop-color="#C88A42"/>
<stop offset="0.09" stop-color="#9D6C34"/>
<stop offset="0.14" stop-color="#775228"/>
<stop offset="0.19" stop-color="#573C1D"/>
<stop offset="0.25" stop-color="#3B2914"/>
<stop offset="0.32" stop-color="#251A0C"/>
<stop offset="0.4" stop-color="#140E07"/>
<stop offset="0.49" stop-color="#090603"/>
<stop offset="0.63" stop-color="#020101"/>
<stop offset="1"/>
</radialGradient>
<radialGradient id="paint40_radial_33_4821" cx="0" cy="0" r="1" gradientUnits="userSpaceOnUse" gradientTransform="translate(957.94 58.3885) scale(32.9977 26.8579)">
<stop stop-color="#FDAE54"/>
<stop offset="0.01" stop-color="#F6A952"/>
<stop offset="0.05" stop-color="#C88A42"/>
<stop offset="0.09" stop-color="#9D6C34"/>
<stop offset="0.14" stop-color="#775228"/>
<stop offset="0.19" stop-color="#573C1D"/>
<stop offset="0.25" stop-color="#3B2914"/>
<stop offset="0.32" stop-color="#251A0C"/>
<stop offset="0.4" stop-color="#140E07"/>
<stop offset="0.49" stop-color="#090603"/>
<stop offset="0.63" stop-color="#020101"/>
<stop offset="1"/>
</radialGradient>
<radialGradient id="paint41_radial_33_4821" cx="0" cy="0" r="1" gradientUnits="userSpaceOnUse" gradientTransform="translate(627.324 711.694) rotate(180) scale(32.9977 26.858)">
<stop stop-color="#FDAE54"/>
<stop offset="0.01" stop-color="#F6A952"/>
<stop offset="0.05" stop-color="#C88A42"/>
<stop offset="0.09" stop-color="#9D6C34"/>
<stop offset="0.14" stop-color="#775228"/>
<stop offset="0.19" stop-color="#573C1D"/>
<stop offset="0.25" stop-color="#3B2914"/>
<stop offset="0.32" stop-color="#251A0C"/>
<stop offset="0.4" stop-color="#140E07"/>
<stop offset="0.49" stop-color="#090603"/>
<stop offset="0.63" stop-color="#020101"/>
<stop offset="1"/>
</radialGradient>
<radialGradient id="paint42_radial_33_4821" cx="0" cy="0" r="1" gradientUnits="userSpaceOnUse" gradientTransform="translate(535.714 765.391) rotate(180) scale(32.9977 26.8579)">
<stop stop-color="#FDAE54"/>
<stop offset="0.01" stop-color="#F6A952"/>
<stop offset="0.05" stop-color="#C88A42"/>
<stop offset="0.09" stop-color="#9D6C34"/>
<stop offset="0.14" stop-color="#775228"/>
<stop offset="0.19" stop-color="#573C1D"/>
<stop offset="0.25" stop-color="#3B2914"/>
<stop offset="0.32" stop-color="#251A0C"/>
<stop offset="0.4" stop-color="#140E07"/>
<stop offset="0.49" stop-color="#090603"/>
<stop offset="0.63" stop-color="#020101"/>
<stop offset="1"/>
</radialGradient>
<radialGradient id="paint43_radial_33_4821" cx="0" cy="0" r="1" gradientUnits="userSpaceOnUse" gradientTransform="translate(604.405 667.443) rotate(180) scale(22.9195 18.6549)">
<stop stop-color="#FDAE54"/>
<stop offset="0.01" stop-color="#F6A952"/>
<stop offset="0.05" stop-color="#C88A42"/>
<stop offset="0.09" stop-color="#9D6C34"/>
<stop offset="0.14" stop-color="#775228"/>
<stop offset="0.19" stop-color="#573C1D"/>
<stop offset="0.25" stop-color="#3B2914"/>
<stop offset="0.32" stop-color="#251A0C"/>
<stop offset="0.4" stop-color="#140E07"/>
<stop offset="0.49" stop-color="#090603"/>
<stop offset="0.63" stop-color="#020101"/>
<stop offset="1"/>
</radialGradient>
<radialGradient id="paint44_radial_33_4821" cx="0" cy="0" r="1" gradientUnits="userSpaceOnUse" gradientTransform="translate(509.699 656.064) rotate(180) scale(32.9977 26.8579)">
<stop stop-color="#FDAE54"/>
<stop offset="0.01" stop-color="#F6A952"/>
<stop offset="0.05" stop-color="#C88A42"/>
<stop offset="0.09" stop-color="#9D6C34"/>
<stop offset="0.14" stop-color="#775228"/>
<stop offset="0.19" stop-color="#573C1D"/>
<stop offset="0.25" stop-color="#3B2914"/>
<stop offset="0.32" stop-color="#251A0C"/>
<stop offset="0.4" stop-color="#140E07"/>
<stop offset="0.49" stop-color="#090603"/>
<stop offset="0.63" stop-color="#020101"/>
<stop offset="1"/>
</radialGradient>
</defs>
</svg>
